<mxfile host="app.diagrams.net" modified="2023-09-02T15:28:47.624Z" agent="Mozilla/5.0 (Windows NT 10.0; Win64; x64) AppleWebKit/537.36 (KHTML, like Gecko) Chrome/116.0.0.0 Safari/537.36 Edg/116.0.1938.69" etag="HKyIB_F7FqY3Wy5tsSL9" version="21.6.9" type="github">
  <diagram id="C5RBs43oDa-KdzZeNtuy" name="Page-1">
    <mxGraphModel dx="872" dy="473" grid="1" gridSize="10" guides="1" tooltips="1" connect="1" arrows="1" fold="1" page="1" pageScale="1" pageWidth="827" pageHeight="1169" math="0" shadow="0">
      <root>
        <mxCell id="WIyWlLk6GJQsqaUBKTNV-0" />
        <mxCell id="WIyWlLk6GJQsqaUBKTNV-1" parent="WIyWlLk6GJQsqaUBKTNV-0" />
        <mxCell id="WIyWlLk6GJQsqaUBKTNV-3" value="Inicio&#xa;|&#xa;|--- Ingresar el primer número (A)&#xa;|    |&#xa;|    |--- ¿Es un número válido? (Sí/No)&#xa;|    |    |&#xa;|    |    |--- No&#xa;|    |    |    |&#xa;|    |    |    |--- Mostrar mensaje de error&#xa;|    |    |    |&#xa;|    |    |    |--- Terminar&#xa;|    |    |&#xa;|    |    |--- Sí&#xa;|    |        |&#xa;|    |        |--- Ingresar el segundo número (B)&#xa;|    |        |&#xa;|    |        |--- ¿Es un número válido? (Sí/No)&#xa;|    |        |    |&#xa;|    |        |    |--- No&#xa;|    |        |    |    |&#xa;|    |        |    |    |--- Mostrar mensaje de error&#xa;|    |        |    |    |&#xa;|    |        |    |    |--- Terminar&#xa;|    |        |    |&#xa;|    |        |    |--- Sí&#xa;|    |        |        |&#xa;|    |        |        |--- Mostrar menú de operaciones&#xa;|    |        |        |&#xa;|    |        |        |--- Seleccionar una operación (+, -, *, /)&#xa;|    |        |        |&#xa;|    |        |        |--- Realizar la operación seleccionada (A op B)&#xa;|    |        |        |&#xa;|    |        |        |--- Mostrar resultado&#xa;|    |        |&#xa;|    |        |--- Terminar&#xa;|&#xa;Fin" style="rounded=1;whiteSpace=wrap;html=1;fontSize=12;glass=0;strokeWidth=1;shadow=0;" parent="WIyWlLk6GJQsqaUBKTNV-1" vertex="1">
          <mxGeometry x="320" y="340" width="120" height="40" as="geometry" />
        </mxCell>
      </root>
    </mxGraphModel>
  </diagram>
</mxfile>
